<svg xmlns="http://www.w3.org/2000/svg" width="900" height="448" viewBox="0 0 900 448" role="img" aria-labelledby="t d">
<!-- Generated by scripts/readiness.ts (the report command with the write flag) from the readiness ledger summary; do not hand-edit. -->
  <title id="t">Where MM3 installs</title>
  <desc id="d">MM3 installs in a coding agent with two steps: plugin marketplace add mvp-scale/mm3, then plugin install mm3@mvp-scale. An agent without a plugin store registers mm3 mcp as an MCP server instead. Tested, installed and registered through each agent's own commands: Claude Code, Codex, GitHub Copilot, Factory Droid, Gemini CLI, Goose, OpenCode, Amp, Cursor. Expected to work, following the same open standards but not installed by us yet: Aider, Hermes, Cline, Kilo Code, Pi, OpenClaw, Kiro, Antigravity, any agent that reads AGENTS.md. The exact command for each agent is at mm3lab.dev/agents.</desc>
  <style>
    text{font-family:Inter,ui-sans-serif,system-ui,-apple-system,'Segoe UI',sans-serif}
    .ground{fill:#0b1424;stroke:#24344f}
    .h{fill:#e6edf7;font-size:26px;font-weight:700}
    .sub{fill:#9fb0c9;font-size:15px}
    .code{fill:#101b2e;stroke:#24344f}
    .mono{font-family:ui-monospace,SFMono-Regular,'JetBrains Mono',Menlo,Consolas,monospace;font-size:17px;font-weight:600;fill:#e6edf7}
    .dim{fill:#7f93b0}
    .mono2{font-family:ui-monospace,SFMono-Regular,'JetBrains Mono',Menlo,Consolas,monospace;font-weight:600;fill:#e6edf7}
    .card{fill:#0e1829;stroke:#24344f}
    .ct{font-size:13px;font-weight:700;letter-spacing:.14em}
    .cn{font-size:30px;font-weight:700}
    .ok{fill:#0f2a22;stroke:#1f6f55} .okt{fill:#6ee7b7}
    .ex{fill:#131f33;stroke:#2b3f5e} .ext{fill:#9fb0c9}
    .chip{font-size:14px;font-weight:600;text-anchor:middle}
    .foot{fill:#7f93b0;font-size:13px}
  </style>
  <rect class="ground" x="0.5" y="0.5" width="899" height="447" rx="14"/>
  <text class="h" x="28" y="52">Install it in your agent</text>
  <text class="sub" x="28" y="80">Add the marketplace, install the plugin. No plugin store? Register <tspan class="mono2">mm3 mcp</tspan> as a server.</text>
  <rect class="code" x="28" y="96" width="844" height="68" rx="10"/>
  <text class="mono" x="46" y="126"><tspan class="dim">1  </tspan>plugin marketplace add mvp-scale/mm3</text>
  <text class="mono" x="46" y="154"><tspan class="dim">2  </tspan>plugin install mm3@mvp-scale</text>
  <rect class="card" x="28" y="176" width="408" height="216" rx="12"/>
  <text class="ct okt" x="44" y="204">TESTED: INSTALLS AND REGISTERS</text>
  <text class="cn okt" x="44" y="240">9 agents</text>
  <rect class="ok" x="44" y="260" width="117" height="30" rx="15"/><text class="chip okt" x="102.5" y="280">Claude Code</text><rect class="ok" x="171" y="260" width="67" height="30" rx="15"/><text class="chip okt" x="204.5" y="280">Codex</text><rect class="ok" x="248" y="260" width="141" height="30" rx="15"/><text class="chip okt" x="318.5" y="280">GitHub Copilot</text><rect class="ok" x="44" y="300" width="133" height="30" rx="15"/><text class="chip okt" x="110.5" y="320">Factory Droid</text><rect class="ok" x="187" y="300" width="108" height="30" rx="15"/><text class="chip okt" x="241" y="320">Gemini CLI</text><rect class="ok" x="305" y="300" width="67" height="30" rx="15"/><text class="chip okt" x="338.5" y="320">Goose</text><rect class="ok" x="44" y="340" width="92" height="30" rx="15"/><text class="chip okt" x="90" y="360">OpenCode</text><rect class="ok" x="146" y="340" width="51" height="30" rx="15"/><text class="chip okt" x="171.5" y="360">Amp</text><rect class="ok" x="207" y="340" width="76" height="30" rx="15"/><text class="chip okt" x="245" y="360">Cursor</text>
  <rect class="card" x="464" y="176" width="408" height="216" rx="12"/>
  <text class="ct ext" x="480" y="204">EXPECTED TO WORK: SAME STANDARDS</text>
  <text class="cn ext" x="480" y="240">8 more</text>
  <rect class="ex" x="480" y="260" width="67" height="30" rx="15"/><text class="chip ext" x="513.5" y="280">Aider</text><rect class="ex" x="557" y="260" width="76" height="30" rx="15"/><text class="chip ext" x="595" y="280">Hermes</text><rect class="ex" x="643" y="260" width="67" height="30" rx="15"/><text class="chip ext" x="676.5" y="280">Cline</text><rect class="ex" x="720" y="260" width="100" height="30" rx="15"/><text class="chip ext" x="770" y="280">Kilo Code</text><rect class="ex" x="480" y="300" width="43" height="30" rx="15"/><text class="chip ext" x="501.5" y="320">Pi</text><rect class="ex" x="533" y="300" width="92" height="30" rx="15"/><text class="chip ext" x="579" y="320">OpenClaw</text><rect class="ex" x="635" y="300" width="59" height="30" rx="15"/><text class="chip ext" x="664.5" y="320">Kiro</text><rect class="ex" x="704" y="300" width="117" height="30" rx="15"/><text class="chip ext" x="762.5" y="320">Antigravity</text><rect class="ex" x="480" y="340" width="272" height="30" rx="15"/><text class="chip ext" x="616" y="360">any agent that reads AGENTS.md</text>
  <text class="foot" x="28" y="424">Tested: the agent&apos;s own commands installed MM3 and it listed it (no model call). Exact commands: mm3lab.dev/agents</text>
</svg>
